<svg width="949.122" height="97.656" viewBox="0 0 949.122 97.656" xmlns="http://www.w3.org/2000/svg"><g id="svgGroup" stroke-linecap="round" fill-rule="evenodd" font-size="9pt" stroke="#db2197" stroke-width="1mm" fill="#000" style="stroke:#db2197;stroke-width:1mm;fill:#000"><path d="M 507.521 61.816 L 494.972 76.66 L 485.987 76.66 A 37.355 37.355 0 0 1 477.806 75.795 A 31.317 31.317 0 0 1 472.413 74.072 Q 466.2 71.417 463.47 67.489 A 11.877 11.877 0 0 1 461.329 60.547 L 461.329 46.338 Q 461.329 39.399 469.234 35.058 A 30.736 30.736 0 0 1 471.73 33.838 A 24.701 24.701 0 0 1 468.726 30.674 Q 467.272 28.815 466.522 26.933 A 10.818 10.818 0 0 1 465.724 22.9 L 465.724 17.09 A 14.419 14.419 0 0 1 467.365 10.141 Q 469.542 6.099 474.611 3.564 A 24.787 24.787 0 0 1 484.834 0.999 A 29.052 29.052 0 0 1 485.987 0.977 A 25.845 25.845 0 0 1 494.372 2.313 A 23.92 23.92 0 0 1 497.364 3.564 Q 506.251 8.105 506.251 17.09 L 506.251 20.166 L 496.974 24.561 L 496.486 24.561 L 496.486 17.09 A 5.874 5.874 0 0 0 494.589 12.757 A 9.949 9.949 0 0 0 492.775 11.377 A 10.243 10.243 0 0 0 489.865 10.194 Q 488.128 9.766 485.987 9.766 A 17.53 17.53 0 0 0 483.144 9.983 Q 481.598 10.237 480.331 10.79 A 9.3 9.3 0 0 0 479.2 11.377 A 10.599 10.599 0 0 0 477.407 12.776 Q 476.373 13.796 475.897 14.97 A 5.583 5.583 0 0 0 475.489 17.09 L 475.489 22.9 Q 475.489 26.855 479.249 28.809 Q 482.13 30.322 485.402 30.615 A 105.976 105.976 0 0 0 489.906 30.945 A 81.602 81.602 0 0 0 494.044 31.055 L 508.4 48.34 L 520.704 31.934 L 521.193 31.934 L 529.591 35.938 L 514.064 55.273 L 529.689 73.633 L 521.193 77.637 L 520.704 77.637 L 507.521 61.816 Z M 0.001 60.547 L 0.001 53.223 L 9.278 48.828 L 9.767 48.828 L 9.767 60.547 A 4.061 4.061 0 0 0 10.858 63.253 Q 12.044 64.622 14.521 65.767 A 22.745 22.745 0 0 0 15.675 66.26 A 23.465 23.465 0 0 0 22.413 67.783 A 28.034 28.034 0 0 0 24.659 67.871 A 25.894 25.894 0 0 0 30.458 67.242 A 22.359 22.359 0 0 0 33.644 66.26 A 19.701 19.701 0 0 0 35.928 65.195 Q 39.552 63.186 39.552 60.547 L 39.552 46.338 A 4.116 4.116 0 0 0 38.421 43.562 Q 36.967 41.916 33.644 40.625 A 23.465 23.465 0 0 0 26.905 39.102 A 28.034 28.034 0 0 0 24.659 39.014 A 34.656 34.656 0 0 1 18.515 38.492 A 27.192 27.192 0 0 1 13.527 37.109 A 24.559 24.559 0 0 1 9.748 35.26 Q 7.866 34.109 6.646 32.752 A 8.288 8.288 0 0 1 4.396 27.051 L 4.396 12.939 Q 4.396 7.465 10.788 4.11 A 25.987 25.987 0 0 1 13.527 2.881 A 28.056 28.056 0 0 1 20.165 1.247 A 36.109 36.109 0 0 1 24.659 0.977 A 34.656 34.656 0 0 1 30.803 1.498 A 27.192 27.192 0 0 1 35.792 2.881 A 24.559 24.559 0 0 1 39.571 4.73 Q 41.452 5.881 42.673 7.238 A 8.288 8.288 0 0 1 44.923 12.939 L 44.923 19.189 L 35.646 23.584 L 35.157 23.584 L 35.157 14.648 Q 35.157 12.368 32.494 11.152 A 8.873 8.873 0 0 0 32.106 10.986 A 15.822 15.822 0 0 0 29.064 10.131 Q 27.567 9.858 25.845 9.789 A 29.701 29.701 0 0 0 24.659 9.766 Q 21.008 9.766 18.284 10.608 A 14.106 14.106 0 0 0 17.213 10.986 A 7.272 7.272 0 0 0 15.878 11.673 Q 15.16 12.151 14.743 12.75 A 3.237 3.237 0 0 0 14.161 14.648 L 14.161 25.342 Q 14.161 27.622 16.824 28.838 A 8.873 8.873 0 0 0 17.213 29.004 A 15.822 15.822 0 0 0 20.254 29.86 Q 21.752 30.133 23.474 30.201 A 29.701 29.701 0 0 0 24.659 30.225 A 36.703 36.703 0 0 1 33.832 31.339 A 32.303 32.303 0 0 1 38.234 32.812 Q 44.512 35.412 47.234 39.406 A 12.02 12.02 0 0 1 49.318 46.338 L 49.318 60.547 A 12.395 12.395 0 0 1 44.43 70.476 Q 41.957 72.514 38.234 74.072 Q 32.032 76.66 24.659 76.66 A 36.703 36.703 0 0 1 15.487 75.546 A 32.303 32.303 0 0 1 11.085 74.072 Q 4.807 71.473 2.085 67.479 A 12.02 12.02 0 0 1 0.001 60.547 Z M 586.818 77.637 L 586.329 77.637 L 586.329 4.395 L 595.607 0 L 596.095 0 L 596.095 34.375 L 624.903 34.375 L 624.903 4.395 L 634.181 0 L 634.669 0 L 634.669 73.242 L 625.392 77.637 L 624.903 77.637 L 624.903 43.262 L 596.095 43.262 L 596.095 73.242 L 586.818 77.637 Z M 277.54 77.637 L 277.052 77.637 L 277.052 4.395 L 286.329 0 L 286.818 0 L 286.818 22.656 A 28.663 28.663 0 0 1 293.116 21.23 A 36.598 36.598 0 0 1 297.316 20.996 A 34.656 34.656 0 0 1 303.46 21.518 A 27.192 27.192 0 0 1 308.448 22.9 Q 317.579 26.416 317.579 32.959 L 317.579 73.242 L 308.302 77.637 L 307.814 77.637 L 307.814 34.668 Q 307.814 32.387 305.151 31.172 A 8.873 8.873 0 0 0 304.762 31.006 A 15.822 15.822 0 0 0 301.721 30.15 Q 300.223 29.877 298.501 29.808 A 29.701 29.701 0 0 0 297.316 29.785 Q 293.665 29.785 290.94 30.628 A 14.106 14.106 0 0 0 289.869 31.006 A 7.272 7.272 0 0 0 288.534 31.693 Q 287.817 32.171 287.399 32.769 A 3.237 3.237 0 0 0 286.818 34.668 L 286.818 73.242 L 277.54 77.637 Z M 368.068 64.697 L 368.068 58.447 L 377.345 54.053 L 377.833 54.053 L 377.833 62.988 Q 377.833 65.269 380.496 66.484 A 8.873 8.873 0 0 0 380.885 66.65 A 15.822 15.822 0 0 0 383.926 67.506 Q 385.424 67.779 387.146 67.848 A 29.701 29.701 0 0 0 388.331 67.871 A 27.828 27.828 0 0 0 391.387 67.713 Q 392.894 67.547 394.168 67.203 A 13.14 13.14 0 0 0 395.802 66.65 Q 398.829 65.381 398.829 62.988 L 398.829 55.371 Q 398.829 53.242 396.355 52.002 A 9.091 9.091 0 0 0 395.704 51.709 Q 392.677 50.488 388.282 50.488 A 25.656 25.656 0 0 1 379.262 48.815 A 29.331 29.331 0 0 1 378.663 48.584 Q 374.044 46.71 371.922 43.923 A 8.674 8.674 0 0 1 370.118 38.525 L 370.118 32.959 Q 370.118 27.457 376.401 24.074 A 23.924 23.924 0 0 1 378.224 23.193 A 25.939 25.939 0 0 1 385.4 21.18 A 23.535 23.535 0 0 1 388.331 20.996 A 26.823 26.823 0 0 1 392.242 21.267 Q 394.676 21.626 396.681 22.461 A 20.507 20.507 0 0 1 400.377 24.472 Q 405.128 27.795 405.128 32.959 L 395.851 37.354 L 395.362 37.354 L 395.362 34.668 A 6.184 6.184 0 0 0 395.208 33.236 A 3.487 3.487 0 0 0 393.361 30.811 A 8.666 8.666 0 0 0 391.259 30.075 Q 390.28 29.86 389.141 29.804 A 16.674 16.674 0 0 0 388.331 29.785 A 23.388 23.388 0 0 0 386.131 29.882 Q 383.816 30.101 382.338 30.819 A 6.24 6.24 0 0 0 381.984 31.006 A 4.396 4.396 0 0 0 380.684 32.119 Q 379.997 33.014 379.9 34.252 A 5.328 5.328 0 0 0 379.884 34.668 L 379.884 36.816 Q 379.884 39.172 381.748 40.391 A 5.152 5.152 0 0 0 381.886 40.479 A 6.482 6.482 0 0 0 383.371 41.122 Q 384.92 41.595 387.228 41.68 A 28.546 28.546 0 0 0 388.282 41.699 A 34.656 34.656 0 0 1 394.426 42.221 A 27.192 27.192 0 0 1 399.415 43.604 A 24.115 24.115 0 0 1 403.214 45.418 Q 405.106 46.555 406.332 47.912 A 8.324 8.324 0 0 1 408.595 53.662 L 408.595 64.697 A 8.534 8.534 0 0 1 405.625 71.152 Q 403.387 73.224 399.464 74.756 A 28.056 28.056 0 0 1 392.826 76.39 A 36.109 36.109 0 0 1 388.331 76.66 A 34.656 34.656 0 0 1 382.187 76.138 A 27.192 27.192 0 0 1 377.198 74.756 A 24.559 24.559 0 0 1 373.42 72.907 Q 371.538 71.755 370.318 70.399 A 8.288 8.288 0 0 1 368.068 64.697 Z M 908.595 64.697 L 908.595 58.447 L 917.872 54.053 L 918.361 54.053 L 918.361 62.988 Q 918.361 65.269 921.024 66.484 A 8.873 8.873 0 0 0 921.412 66.65 A 15.822 15.822 0 0 0 924.454 67.506 Q 925.951 67.779 927.673 67.848 A 29.701 29.701 0 0 0 928.859 67.871 A 27.828 27.828 0 0 0 931.914 67.713 Q 933.421 67.547 934.695 67.203 A 13.14 13.14 0 0 0 936.329 66.65 Q 939.357 65.381 939.357 62.988 L 939.357 55.371 Q 939.357 53.242 936.882 52.002 A 9.091 9.091 0 0 0 936.232 51.709 Q 933.204 50.488 928.81 50.488 A 25.656 25.656 0 0 1 919.79 48.815 A 29.331 29.331 0 0 1 919.191 48.584 Q 914.571 46.71 912.449 43.923 A 8.674 8.674 0 0 1 910.646 38.525 L 910.646 32.959 Q 910.646 27.457 916.928 24.074 A 23.924 23.924 0 0 1 918.751 23.193 A 25.939 25.939 0 0 1 925.927 21.18 A 23.535 23.535 0 0 1 928.859 20.996 A 26.823 26.823 0 0 1 932.769 21.267 Q 935.203 21.626 937.208 22.461 A 20.507 20.507 0 0 1 940.904 24.472 Q 945.655 27.795 945.655 32.959 L 936.378 37.354 L 935.89 37.354 L 935.89 34.668 A 6.184 6.184 0 0 0 935.736 33.236 A 3.487 3.487 0 0 0 933.888 30.811 A 8.666 8.666 0 0 0 931.786 30.075 Q 930.807 29.86 929.669 29.804 A 16.674 16.674 0 0 0 928.859 29.785 A 23.388 23.388 0 0 0 926.659 29.882 Q 924.343 30.101 922.866 30.819 A 6.24 6.24 0 0 0 922.511 31.006 A 4.396 4.396 0 0 0 921.211 32.119 Q 920.524 33.014 920.427 34.252 A 5.328 5.328 0 0 0 920.411 34.668 L 920.411 36.816 Q 920.411 39.172 922.275 40.391 A 5.152 5.152 0 0 0 922.413 40.479 A 6.482 6.482 0 0 0 923.898 41.122 Q 925.447 41.595 927.755 41.68 A 28.546 28.546 0 0 0 928.81 41.699 A 34.656 34.656 0 0 1 934.954 42.221 A 27.192 27.192 0 0 1 939.943 43.604 A 24.115 24.115 0 0 1 943.741 45.418 Q 945.633 46.555 946.86 47.912 A 8.324 8.324 0 0 1 949.122 53.662 L 949.122 64.697 A 8.534 8.534 0 0 1 946.152 71.152 Q 943.915 73.224 939.991 74.756 A 28.056 28.056 0 0 1 933.353 76.39 A 36.109 36.109 0 0 1 928.859 76.66 A 34.656 34.656 0 0 1 922.715 76.138 A 27.192 27.192 0 0 1 917.726 74.756 A 24.559 24.559 0 0 1 913.947 72.907 Q 912.066 71.755 910.845 70.399 A 8.288 8.288 0 0 1 908.595 64.697 Z M 855.372 77.637 L 854.884 77.637 L 854.884 32.959 Q 854.884 27.484 861.277 24.129 A 25.987 25.987 0 0 1 864.015 22.9 A 28.056 28.056 0 0 1 870.653 21.267 A 36.109 36.109 0 0 1 875.148 20.996 A 34.656 34.656 0 0 1 881.292 21.518 A 27.192 27.192 0 0 1 886.28 22.9 Q 895.411 26.416 895.411 32.959 L 895.411 73.242 L 886.134 77.637 L 885.646 77.637 L 885.646 34.668 Q 885.646 32.387 882.983 31.172 A 8.873 8.873 0 0 0 882.594 31.006 A 15.822 15.822 0 0 0 879.553 30.15 Q 878.055 29.877 876.333 29.808 A 29.701 29.701 0 0 0 875.148 29.785 Q 871.497 29.785 868.772 30.628 A 14.106 14.106 0 0 0 867.701 31.006 A 7.272 7.272 0 0 0 866.366 31.693 Q 865.649 32.171 865.231 32.769 A 3.237 3.237 0 0 0 864.65 34.668 L 864.65 73.242 L 855.372 77.637 Z M 217.97 64.697 L 217.97 32.959 Q 217.97 27.484 224.363 24.129 A 25.987 25.987 0 0 1 227.101 22.9 A 28.056 28.056 0 0 1 233.739 21.267 A 36.109 36.109 0 0 1 238.234 20.996 A 34.656 34.656 0 0 1 244.378 21.518 A 27.192 27.192 0 0 1 249.366 22.9 A 24.559 24.559 0 0 1 253.145 24.75 Q 255.027 25.901 256.247 27.257 A 8.288 8.288 0 0 1 258.497 32.959 L 258.497 84.717 Q 258.497 90.192 252.105 93.547 A 25.987 25.987 0 0 1 249.366 94.775 A 28.056 28.056 0 0 1 242.728 96.409 A 36.109 36.109 0 0 1 238.234 96.68 L 223.048 96.68 L 223.048 96.191 L 226.954 87.891 L 238.234 87.891 Q 241.885 87.891 244.609 87.048 A 14.106 14.106 0 0 0 245.68 86.67 A 7.272 7.272 0 0 0 247.015 85.983 Q 247.732 85.505 248.15 84.907 A 3.237 3.237 0 0 0 248.732 83.008 L 248.732 75 A 28.663 28.663 0 0 1 242.434 76.427 A 36.598 36.598 0 0 1 238.234 76.66 A 34.656 34.656 0 0 1 232.09 76.138 A 27.192 27.192 0 0 1 227.101 74.756 A 24.559 24.559 0 0 1 223.322 72.907 Q 221.441 71.755 220.22 70.399 A 8.288 8.288 0 0 1 217.97 64.697 Z M 780.177 75 L 780.177 93.262 L 770.9 97.656 L 770.411 97.656 L 770.411 32.959 Q 770.411 27.484 776.804 24.129 A 25.987 25.987 0 0 1 779.542 22.9 A 28.056 28.056 0 0 1 786.18 21.267 A 36.109 36.109 0 0 1 790.675 20.996 A 34.656 34.656 0 0 1 796.819 21.518 A 27.192 27.192 0 0 1 801.808 22.9 A 24.559 24.559 0 0 1 805.586 24.75 Q 807.468 25.901 808.688 27.257 A 8.288 8.288 0 0 1 810.939 32.959 L 810.939 64.697 Q 810.939 70.172 804.546 73.527 A 25.987 25.987 0 0 1 801.808 74.756 A 28.056 28.056 0 0 1 795.17 76.39 A 36.109 36.109 0 0 1 790.675 76.66 A 35.101 35.101 0 0 1 784.818 76.192 A 27.731 27.731 0 0 1 780.177 75 Z M 174.025 32.959 L 174.025 73.242 L 164.747 77.637 L 164.259 77.637 L 164.259 75 Q 159.571 76.66 154.249 76.66 A 30.228 30.228 0 0 1 146.28 75.633 A 27.376 27.376 0 0 1 143.605 74.756 A 24.559 24.559 0 0 1 139.826 72.907 Q 137.944 71.755 136.724 70.399 A 8.288 8.288 0 0 1 134.474 64.697 L 134.474 51.514 Q 134.474 46.039 140.866 42.684 A 25.987 25.987 0 0 1 143.605 41.455 A 28.805 28.805 0 0 1 152.745 39.584 A 33.381 33.381 0 0 1 154.249 39.551 A 30.641 30.641 0 0 1 161.516 40.39 A 27.264 27.264 0 0 1 164.259 41.211 L 164.259 34.668 Q 164.259 32.387 161.596 31.172 A 8.873 8.873 0 0 0 161.207 31.006 A 15.822 15.822 0 0 0 158.166 30.15 Q 156.668 29.877 154.946 29.808 A 29.701 29.701 0 0 0 153.761 29.785 L 141.896 29.785 L 141.896 29.297 L 145.802 20.996 L 153.761 20.996 A 34.656 34.656 0 0 1 159.905 21.518 A 27.192 27.192 0 0 1 164.894 22.9 Q 174.025 26.416 174.025 32.959 Z M 688.868 32.959 L 688.868 73.242 L 679.591 77.637 L 679.103 77.637 L 679.103 75 Q 674.415 76.66 669.093 76.66 A 30.228 30.228 0 0 1 661.123 75.633 A 27.376 27.376 0 0 1 658.448 74.756 A 24.559 24.559 0 0 1 654.67 72.907 Q 652.788 71.755 651.568 70.399 A 8.288 8.288 0 0 1 649.318 64.697 L 649.318 51.514 Q 649.318 46.039 655.71 42.684 A 25.987 25.987 0 0 1 658.448 41.455 A 28.805 28.805 0 0 1 667.589 39.584 A 33.381 33.381 0 0 1 669.093 39.551 A 30.641 30.641 0 0 1 676.36 40.39 A 27.264 27.264 0 0 1 679.103 41.211 L 679.103 34.668 Q 679.103 32.387 676.44 31.172 A 8.873 8.873 0 0 0 676.051 31.006 A 15.822 15.822 0 0 0 673.01 30.15 Q 671.512 29.877 669.79 29.808 A 29.701 29.701 0 0 0 668.605 29.785 L 656.739 29.785 L 656.739 29.297 L 660.646 20.996 L 668.605 20.996 A 34.656 34.656 0 0 1 674.749 21.518 A 27.192 27.192 0 0 1 679.737 22.9 Q 688.868 26.416 688.868 32.959 Z M 71.388 77.637 L 70.9 77.637 L 70.9 30.859 L 58.351 30.859 L 58.351 30.371 L 62.306 21.973 L 70.9 21.973 L 70.9 4.395 L 80.177 0 L 80.665 0 L 80.665 21.973 L 93.214 21.973 L 93.214 22.461 L 89.259 30.859 L 80.665 30.859 L 80.665 73.242 L 71.388 77.637 Z M 339.161 77.637 L 338.673 77.637 L 338.673 30.859 L 326.124 30.859 L 326.124 30.371 L 330.079 21.973 L 338.673 21.973 L 338.673 4.395 L 347.95 0 L 348.439 0 L 348.439 21.973 L 360.987 21.973 L 360.987 22.461 L 357.032 30.859 L 348.439 30.859 L 348.439 73.242 L 339.161 77.637 Z M 102.247 77.637 L 101.759 77.637 L 101.759 32.959 Q 101.759 27.484 108.152 24.129 A 25.987 25.987 0 0 1 110.89 22.9 A 28.056 28.056 0 0 1 117.528 21.267 A 36.109 36.109 0 0 1 122.023 20.996 L 128.614 20.996 L 128.614 21.484 L 124.708 29.785 L 122.023 29.785 Q 118.372 29.785 115.647 30.628 A 14.106 14.106 0 0 0 114.576 31.006 A 7.272 7.272 0 0 0 113.241 31.693 Q 112.524 32.171 112.106 32.769 A 3.237 3.237 0 0 0 111.525 34.668 L 111.525 73.242 L 102.247 77.637 Z M 733.302 77.637 L 732.814 77.637 L 732.814 32.959 Q 732.814 27.484 739.206 24.129 A 25.987 25.987 0 0 1 741.945 22.9 A 28.056 28.056 0 0 1 748.583 21.267 A 36.109 36.109 0 0 1 753.077 20.996 L 759.669 20.996 L 759.669 21.484 L 755.763 29.785 L 753.077 29.785 Q 749.426 29.785 746.702 30.628 A 14.106 14.106 0 0 0 745.631 31.006 A 7.272 7.272 0 0 0 744.296 31.693 Q 743.578 32.171 743.161 32.769 A 3.237 3.237 0 0 0 742.579 34.668 L 742.579 73.242 L 733.302 77.637 Z M 191.603 77.637 L 191.114 77.637 L 191.114 24.414 L 200.392 20.02 L 200.88 20.02 L 200.88 73.242 L 191.603 77.637 Z M 706.446 77.637 L 705.958 77.637 L 705.958 24.414 L 715.236 20.02 L 715.724 20.02 L 715.724 73.242 L 706.446 77.637 Z M 828.517 77.637 L 828.028 77.637 L 828.028 24.414 L 837.306 20.02 L 837.794 20.02 L 837.794 73.242 L 828.517 77.637 Z M 227.736 34.668 L 227.736 62.988 Q 227.736 65.269 230.399 66.484 A 8.873 8.873 0 0 0 230.787 66.65 A 15.822 15.822 0 0 0 233.829 67.506 Q 235.326 67.779 237.048 67.848 A 29.701 29.701 0 0 0 238.234 67.871 Q 242.677 67.871 245.704 66.65 A 7.193 7.193 0 0 0 247.029 65.964 Q 248.732 64.819 248.732 62.988 L 248.732 34.668 Q 248.732 32.387 246.069 31.172 A 8.873 8.873 0 0 0 245.68 31.006 A 15.822 15.822 0 0 0 242.639 30.15 Q 241.141 29.877 239.419 29.808 A 29.701 29.701 0 0 0 238.234 29.785 Q 234.583 29.785 231.858 30.628 A 14.106 14.106 0 0 0 230.787 31.006 A 7.272 7.272 0 0 0 229.452 31.693 Q 228.735 32.171 228.317 32.769 A 3.237 3.237 0 0 0 227.736 34.668 Z M 801.173 62.988 L 801.173 34.668 Q 801.173 32.387 798.51 31.172 A 8.873 8.873 0 0 0 798.121 31.006 A 15.822 15.822 0 0 0 795.08 30.15 Q 793.583 29.877 791.86 29.808 A 29.701 29.701 0 0 0 790.675 29.785 Q 787.024 29.785 784.3 30.628 A 14.106 14.106 0 0 0 783.229 31.006 A 7.272 7.272 0 0 0 781.894 31.693 Q 781.176 32.171 780.758 32.769 A 3.237 3.237 0 0 0 780.177 34.668 L 780.177 62.988 Q 780.177 65.269 782.84 66.484 A 8.873 8.873 0 0 0 783.229 66.65 A 15.822 15.822 0 0 0 786.27 67.506 Q 787.767 67.779 789.489 67.848 A 29.701 29.701 0 0 0 790.675 67.871 Q 794.326 67.871 797.05 67.029 A 14.106 14.106 0 0 0 798.121 66.65 A 7.272 7.272 0 0 0 799.456 65.964 Q 800.174 65.485 800.592 64.887 A 3.237 3.237 0 0 0 801.173 62.988 Z M 502.638 55.371 L 488.966 39.209 Q 487.757 39.108 486.803 39.054 A 47.885 47.885 0 0 0 485.987 39.014 A 25.894 25.894 0 0 0 480.189 39.643 A 22.359 22.359 0 0 0 477.003 40.625 A 19.701 19.701 0 0 0 474.719 41.689 Q 471.095 43.699 471.095 46.338 L 471.095 60.547 A 4.116 4.116 0 0 0 472.226 63.323 Q 473.68 64.969 477.003 66.26 A 23.465 23.465 0 0 0 483.742 67.783 A 28.034 28.034 0 0 0 485.987 67.871 A 9.687 9.687 0 0 0 490.192 66.777 Q 495.444 64.227 502.344 55.735 A 98.621 98.621 0 0 0 502.638 55.371 Z M 144.239 53.223 L 144.239 62.988 Q 144.239 65.269 146.902 66.484 A 8.873 8.873 0 0 0 147.291 66.65 A 16.758 16.758 0 0 0 151.216 67.67 A 21.975 21.975 0 0 0 154.249 67.871 A 21.362 21.362 0 0 0 157.942 67.566 A 16.398 16.398 0 0 0 161.207 66.65 A 7.272 7.272 0 0 0 162.542 65.964 Q 163.26 65.485 163.677 64.887 A 3.237 3.237 0 0 0 164.259 62.988 L 164.259 53.223 Q 164.259 50.942 161.596 49.727 A 8.873 8.873 0 0 0 161.207 49.561 A 16.758 16.758 0 0 0 157.282 48.541 A 21.975 21.975 0 0 0 154.249 48.34 A 21.468 21.468 0 0 0 150.55 48.645 A 16.654 16.654 0 0 0 147.267 49.561 A 7.193 7.193 0 0 0 145.942 50.247 Q 144.239 51.392 144.239 53.223 Z M 659.083 53.223 L 659.083 62.988 Q 659.083 65.269 661.746 66.484 A 8.873 8.873 0 0 0 662.135 66.65 A 16.758 16.758 0 0 0 666.06 67.67 A 21.975 21.975 0 0 0 669.093 67.871 A 21.362 21.362 0 0 0 672.786 67.566 A 16.398 16.398 0 0 0 676.051 66.65 A 7.272 7.272 0 0 0 677.386 65.964 Q 678.104 65.485 678.521 64.887 A 3.237 3.237 0 0 0 679.103 62.988 L 679.103 53.223 Q 679.103 50.942 676.44 49.727 A 8.873 8.873 0 0 0 676.051 49.561 A 16.758 16.758 0 0 0 672.126 48.541 A 21.975 21.975 0 0 0 669.093 48.34 A 21.468 21.468 0 0 0 665.394 48.645 A 16.654 16.654 0 0 0 662.111 49.561 A 7.193 7.193 0 0 0 660.786 50.247 Q 659.083 51.392 659.083 53.223 Z M 190.138 6.958 A 5.843 5.843 0 0 0 191.847 11.182 A 6.772 6.772 0 0 0 191.954 11.29 A 5.558 5.558 0 0 0 195.997 12.939 A 6.689 6.689 0 0 0 196.149 12.938 A 5.56 5.56 0 0 0 200.148 11.182 A 5.843 5.843 0 0 0 201.857 6.958 A 5.843 5.843 0 0 0 200.148 2.734 A 6.772 6.772 0 0 0 200.04 2.626 A 5.558 5.558 0 0 0 195.997 0.977 A 6.689 6.689 0 0 0 195.845 0.978 A 5.56 5.56 0 0 0 191.847 2.734 A 5.843 5.843 0 0 0 190.138 6.958 Z M 704.982 6.958 A 5.843 5.843 0 0 0 706.691 11.182 A 6.772 6.772 0 0 0 706.798 11.29 A 5.558 5.558 0 0 0 710.841 12.939 A 6.689 6.689 0 0 0 710.993 12.938 A 5.56 5.56 0 0 0 714.991 11.182 A 5.843 5.843 0 0 0 716.7 6.958 A 5.843 5.843 0 0 0 714.991 2.734 A 6.772 6.772 0 0 0 714.884 2.626 A 5.558 5.558 0 0 0 710.841 0.977 A 6.689 6.689 0 0 0 710.689 0.978 A 5.56 5.56 0 0 0 706.691 2.734 A 5.843 5.843 0 0 0 704.982 6.958 Z M 827.052 6.958 A 5.843 5.843 0 0 0 828.761 11.182 A 6.772 6.772 0 0 0 828.868 11.29 A 5.558 5.558 0 0 0 832.911 12.939 A 6.689 6.689 0 0 0 833.063 12.938 A 5.56 5.56 0 0 0 837.062 11.182 A 5.843 5.843 0 0 0 838.771 6.958 A 5.843 5.843 0 0 0 837.062 2.734 A 6.772 6.772 0 0 0 836.954 2.626 A 5.558 5.558 0 0 0 832.911 0.977 A 6.689 6.689 0 0 0 832.759 0.978 A 5.56 5.56 0 0 0 828.761 2.734 A 5.843 5.843 0 0 0 827.052 6.958 Z" vector-effect="non-scaling-stroke"/></g></svg>